<?xml version="1.0" standalone="no"?><!DOCTYPE svg PUBLIC "-//W3C//DTD SVG 1.1//EN" "http://www.w3.org/Graphics/SVG/1.1/DTD/svg11.dtd"><svg t="1548943721219" class="icon" style="" viewBox="0 0 1024 1024" version="1.1" xmlns="http://www.w3.org/2000/svg" p-id="1314" xmlns:xlink="http://www.w3.org/1999/xlink" width="200" height="200"><defs><style type="text/css"></style></defs><path d="M511.865581 1023.999107a511.970601 511.970601 0 0 1-199.248456-983.508652 511.970601 511.970601 0 0 1 398.483785 943.273014 508.662483 508.662483 0 0 1-199.235329 40.235638z m0-1008.726486a496.992179 496.992179 0 0 0-193.40674 954.680769 496.992179 496.992179 0 0 0 386.800353-915.639729 493.749699 493.749699 0 0 0-193.393613-39.04104z" p-id="1315"></path><path d="M231.371329 755.385199l8.270295-16.960667C296.076537 622.509136 354.441185 502.786781 413.015873 383.405738l1.49653-3.045568 402.723951-110.02117-209.028407 342.902156-2.415451 0.905794z m193.629907-362.317657c-55.135296 112.528513-110.270591 225.411466-163.607426 334.973176l336.692872-127.021219 186.685485-306.250312z" p-id="1316"></path><path d="M523.693415 497.969006m-27.318226 0a27.318226 27.318226 0 1 0 54.636452 0 27.318226 27.318226 0 1 0-54.636452 0Z" p-id="1317"></path></svg>